<svg width="51" height="51" viewBox="0 0 51 51" fill="none" xmlns="http://www.w3.org/2000/svg">
<path d="M27.2033 50.3794C13.3124 51.4698 1.1679 41.0925 0.0785088 27.2014C-1.01089 13.3104 9.36744 1.1667 23.2585 0.0783559C37.1481 -1.00981 49.2903 9.36716 50.3795 23.2566C51.4688 37.1461 41.0927 49.289 27.2033 50.3794ZM21.6649 10.7192C20.8664 10.6335 20.2103 10.7234 19.5007 11.1444C18.9199 12.6831 18.8339 13.1212 19.975 14.4785C20.4391 15.0306 21.0229 15.4366 21.4968 15.9405C22.9127 17.446 24.413 18.8568 25.8734 20.3181C26.3725 20.8182 26.8082 21.4034 27.3412 21.8762C28.2724 22.7895 29.4712 23.8343 30.2622 24.8561C30.3787 25.0067 30.2519 25.4139 30.1895 25.5921C29.9771 26.1979 29.2917 26.5534 28.8271 27.0315L21.3682 34.5956C20.5498 35.4416 19.6906 35.8983 19.2723 37.0797C18.8764 38.1973 19.2024 38.3866 19.6192 39.4241C20.4288 39.7077 20.7607 39.7603 21.6306 39.6678C21.9867 39.5835 22.268 39.4683 22.5368 39.2118C23.9582 37.8557 25.3237 36.3855 26.7153 35.005L32.9038 28.8345C33.8796 27.8497 35.9936 26.2835 35.5494 24.7367C35.2054 23.5392 33.7217 22.461 32.8545 21.5865L27.8021 16.5169L24.0362 12.7186C23.3524 12.0396 22.575 11.0587 21.6649 10.7192Z" fill="white"/>
</svg>
